<mxfile host="app.diagrams.net" modified="2024-06-17T00:04:17.392Z" agent="Mozilla/5.0 (Windows NT 10.0; Win64; x64) AppleWebKit/537.36 (KHTML, like Gecko) Chrome/126.0.0.0 Safari/537.36" etag="ofBjr8QCCALzLRfhwn2S" version="24.5.4" type="github">
  <diagram name="Strona-1" id="0tpwqooWcrLqBpyqqRM-">
    <mxGraphModel dx="913" dy="489" grid="1" gridSize="10" guides="1" tooltips="1" connect="1" arrows="1" fold="1" page="1" pageScale="1" pageWidth="827" pageHeight="1169" math="0" shadow="0">
      <root>
        <mxCell id="0" />
        <mxCell id="1" parent="0" />
        <mxCell id="ps5U07ft2wgSw3Fk10_6-50" style="edgeStyle=orthogonalEdgeStyle;rounded=0;orthogonalLoop=1;jettySize=auto;html=1;entryX=0;entryY=0.5;entryDx=0;entryDy=0;" edge="1" parent="1" source="ps5U07ft2wgSw3Fk10_6-41" target="ps5U07ft2wgSw3Fk10_6-46">
          <mxGeometry relative="1" as="geometry" />
        </mxCell>
        <mxCell id="ps5U07ft2wgSw3Fk10_6-41" value="CLIENT MAIN" style="rounded=0;whiteSpace=wrap;html=1;" vertex="1" parent="1">
          <mxGeometry x="180" y="581" width="100" height="30" as="geometry" />
        </mxCell>
        <mxCell id="ps5U07ft2wgSw3Fk10_6-42" value="Interfaces" style="rounded=0;whiteSpace=wrap;html=1;" vertex="1" parent="1">
          <mxGeometry x="390" y="480" width="100" height="30" as="geometry" />
        </mxCell>
        <mxCell id="ps5U07ft2wgSw3Fk10_6-51" style="edgeStyle=orthogonalEdgeStyle;rounded=0;orthogonalLoop=1;jettySize=auto;html=1;entryX=0.5;entryY=1;entryDx=0;entryDy=0;" edge="1" parent="1" source="ps5U07ft2wgSw3Fk10_6-45" target="ps5U07ft2wgSw3Fk10_6-42">
          <mxGeometry relative="1" as="geometry" />
        </mxCell>
        <mxCell id="ps5U07ft2wgSw3Fk10_6-45" value="InterfaceMaster" style="swimlane;fontStyle=1;align=center;verticalAlign=top;childLayout=stackLayout;horizontal=1;startSize=26;horizontalStack=0;resizeParent=1;resizeParentMax=0;resizeLast=0;collapsible=1;marginBottom=0;whiteSpace=wrap;html=1;" vertex="1" parent="1">
          <mxGeometry x="360" y="557" width="160" height="138" as="geometry" />
        </mxCell>
        <mxCell id="ps5U07ft2wgSw3Fk10_6-46" value="- settings" style="text;strokeColor=none;fillColor=none;align=left;verticalAlign=top;spacingLeft=4;spacingRight=4;overflow=hidden;rotatable=0;points=[[0,0.5],[1,0.5]];portConstraint=eastwest;whiteSpace=wrap;html=1;" vertex="1" parent="ps5U07ft2wgSw3Fk10_6-45">
          <mxGeometry y="26" width="160" height="26" as="geometry" />
        </mxCell>
        <mxCell id="ps5U07ft2wgSw3Fk10_6-47" value="" style="line;strokeWidth=1;fillColor=none;align=left;verticalAlign=middle;spacingTop=-1;spacingLeft=3;spacingRight=3;rotatable=0;labelPosition=right;points=[];portConstraint=eastwest;strokeColor=inherit;" vertex="1" parent="ps5U07ft2wgSw3Fk10_6-45">
          <mxGeometry y="52" width="160" height="8" as="geometry" />
        </mxCell>
        <mxCell id="ps5U07ft2wgSw3Fk10_6-48" value="+ launch()" style="text;strokeColor=none;fillColor=none;align=left;verticalAlign=top;spacingLeft=4;spacingRight=4;overflow=hidden;rotatable=0;points=[[0,0.5],[1,0.5]];portConstraint=eastwest;whiteSpace=wrap;html=1;" vertex="1" parent="ps5U07ft2wgSw3Fk10_6-45">
          <mxGeometry y="60" width="160" height="26" as="geometry" />
        </mxCell>
        <mxCell id="ps5U07ft2wgSw3Fk10_6-52" value="+ addInterfacesFolder()" style="text;strokeColor=none;fillColor=none;align=left;verticalAlign=top;spacingLeft=4;spacingRight=4;overflow=hidden;rotatable=0;points=[[0,0.5],[1,0.5]];portConstraint=eastwest;whiteSpace=wrap;html=1;" vertex="1" parent="ps5U07ft2wgSw3Fk10_6-45">
          <mxGeometry y="86" width="160" height="26" as="geometry" />
        </mxCell>
        <mxCell id="ps5U07ft2wgSw3Fk10_6-53" value="+ addInterfaces()" style="text;strokeColor=none;fillColor=none;align=left;verticalAlign=top;spacingLeft=4;spacingRight=4;overflow=hidden;rotatable=0;points=[[0,0.5],[1,0.5]];portConstraint=eastwest;whiteSpace=wrap;html=1;" vertex="1" parent="ps5U07ft2wgSw3Fk10_6-45">
          <mxGeometry y="112" width="160" height="26" as="geometry" />
        </mxCell>
      </root>
    </mxGraphModel>
  </diagram>
</mxfile>
